<svg width="400" height="400" viewBox="0 0 400 400" fill="none" xmlns="http://www.w3.org/2000/svg">
<rect width="400" height="400" transform="matrix(-1 0 0 -1 400 400)" fill="white"/>
<path d="M127.558 358.449C113.896 358.449 101.338 355.275 89.884 348.927C78.568 342.579 69.529 333.747 62.767 322.431C56.143 310.977 52.831 298.143 52.831 283.929C52.831 269.715 56.143 256.95 62.767 245.634C69.529 234.318 78.568 225.486 89.884 219.138C101.338 212.79 113.896 209.616 127.558 209.616C141.22 209.616 153.709 212.79 165.025 219.138C176.479 225.486 185.449 234.318 191.935 245.634C198.559 256.95 201.871 269.715 201.871 283.929C201.871 298.143 198.559 310.977 191.935 322.431C185.311 333.747 176.341 342.579 165.025 348.927C153.709 355.275 141.22 358.449 127.558 358.449ZM127.558 326.157C139.15 326.157 148.396 322.293 155.296 314.565C162.334 306.837 165.853 296.625 165.853 283.929C165.853 271.095 162.334 260.883 155.296 253.293C148.396 245.565 139.15 241.701 127.558 241.701C115.828 241.701 106.444 245.496 99.406 253.086C92.506 260.676 89.056 270.957 89.056 283.929C89.056 296.763 92.506 307.044 99.406 314.772C106.444 322.362 115.828 326.157 127.558 326.157ZM305.812 357L256.96 292.83V357H221.563V211.686H256.96V275.442L305.398 211.686H347.006L290.701 282.894L349.075 357H305.812Z" fill="black"/>
<path d="M117.542 159.676H163.91V187H82.145V41.686H117.542V159.676ZM249.517 188.449C235.855 188.449 223.297 185.275 211.843 178.927C200.527 172.579 191.488 163.747 184.726 152.431C178.102 140.977 174.79 128.143 174.79 113.929C174.79 99.715 178.102 86.95 184.726 75.634C191.488 64.318 200.527 55.486 211.843 49.138C223.297 42.79 235.855 39.616 249.517 39.616C263.179 39.616 275.668 42.79 286.984 49.138C298.438 55.486 307.408 64.318 313.894 75.634C320.518 86.95 323.83 99.715 323.83 113.929C323.83 128.143 320.518 140.977 313.894 152.431C307.27 163.747 298.3 172.579 286.984 178.927C275.668 185.275 263.179 188.449 249.517 188.449ZM249.517 156.157C261.109 156.157 270.355 152.293 277.255 144.565C284.293 136.837 287.812 126.625 287.812 113.929C287.812 101.095 284.293 90.883 277.255 83.293C270.355 75.565 261.109 71.701 249.517 71.701C237.787 71.701 228.403 75.496 221.365 83.086C214.465 90.676 211.015 100.957 211.015 113.929C211.015 126.763 214.465 137.044 221.365 144.772C228.403 152.362 237.787 156.157 249.517 156.157Z" fill="black"/>
</svg>
